<?xml version="1.0" encoding="UTF-8"?><svg xmlns="http://www.w3.org/2000/svg" viewBox="0 0 1200 1200"><ellipse cx="600.05" cy="600.75" rx="600" ry="599.25" fill="#ebebeb"/><path d="M582.69 483.49c-10.12-31.98-26.31-61.11-48.12-86.59l-.09-.1c-22.08-25.18-50-45.49-80.75-58.75-32.15-14.28-70.02-21.52-112.54-21.52H160.04v544.24h181.05c1.38.02 2.75.03 4.13.03 35.14 0 69.52-6.58 102.28-19.59 30.69-12.33 58.89-31.57 81.56-55.64l.08-.09c23.09-25.05 40.45-54.07 51.6-86.29 12.37-35.9 18.39-73.35 17.89-111.32a335.1 335.1 0 00-15.96-104.37zM341.43 813.87H208.39V363.39H341.4c30.89-.54 61.04 5.1 89.6 16.73 24.72 10.2 47.2 26.13 65.02 46.07 18.08 20.77 31.61 44.56 40.19 70.74 9.66 29.37 14.4 59.93 14.08 90.85v.22c.26 30.78-4.25 61.29-13.4 90.69v.03c-8.15 26.4-21.42 50.4-39.45 71.32-17.78 20.14-40.26 36.31-65.01 46.77-29.01 11.96-59.63 17.7-91 17.07zM760.56 764.72v-448.2H655v544.24h385.05v-96.04H760.56z" fill="#d1a"/></svg>